<?xml version="1.0" standalone="no"?>
<!DOCTYPE svg PUBLIC "-//W3C//DTD SVG 1.1//EN" "http://www.w3.org/Graphics/SVG/1.1/DTD/svg11.dtd">
<svg width="100%" height="100%" viewBox="0 0 809 684" version="1.1" xmlns="http://www.w3.org/2000/svg" xmlns:xlink="http://www.w3.org/1999/xlink" xml:space="preserve" style="fill-rule:evenodd;clip-rule:evenodd;stroke-linejoin:round;stroke-miterlimit:1.41421;">
    <g id="&lt;Layer&gt;" transform="matrix(4.16667,0,0,4.16667,0,0)">
        <path d="M9.1,132.206C4.848,132.206 1.886,129.473 1.886,124.917L1.886,113.426L4.443,113.426L4.443,124.917C4.443,128.485 6.67,129.827 9.1,129.827C11.504,129.827 13.833,128.46 13.833,124.917L13.833,113.426L16.339,113.426L16.339,124.917C16.339,129.32 13.226,132.206 9.1,132.206" style="fill:rgb(96,101,101);fill-rule:nonzero;"/>
        <path d="M33.828,131.903L24.134,118.513C24.033,118.362 23.805,118.008 23.805,118.008C23.805,118.008 23.856,118.413 23.856,118.615L23.856,131.903L21.325,131.903L21.325,113.426L23.476,113.426L33.043,126.562C33.195,126.765 33.373,127.094 33.373,127.094C33.373,127.094 33.322,126.715 33.322,126.487L33.322,113.426L35.853,113.426L35.853,131.903L33.828,131.903Z" style="fill:rgb(96,101,101);fill-rule:nonzero;"/>
        <rect x="40.966" y="113.426" width="2.531" height="18.477" style="fill:rgb(96,101,101);"/>
        <path d="M55.418,131.903L53.849,131.903L47.344,113.426L49.799,113.426L54.482,126.765C54.557,126.993 54.633,127.398 54.633,127.398C54.633,127.398 54.71,126.993 54.785,126.765L59.493,113.426L61.898,113.426L55.418,131.903Z" style="fill:rgb(96,101,101);fill-rule:nonzero;"/>
        <path d="M65.745,131.903L65.745,113.426L76.072,113.426L76.072,115.805L68.276,115.805L68.276,121.703L75.895,121.703L75.895,124.082L68.276,124.082L68.276,129.524L76.553,129.524L76.553,131.903L65.745,131.903Z" style="fill:rgb(96,101,101);fill-rule:nonzero;"/>
        <path d="M86.575,115.805L83.589,115.805L83.589,122.159L86.525,122.159C88.803,122.159 90.118,120.741 90.118,118.767C90.118,117.501 88.98,115.805 86.575,115.805M91.055,131.903L83.589,123.272L83.589,131.903L81.057,131.903L81.057,113.426L87.031,113.426C90.473,113.426 92.751,115.881 92.751,118.868C92.751,121.829 90.245,124.158 87.486,124.158L94.295,131.903L91.055,131.903Z" style="fill:rgb(96,101,101);fill-rule:nonzero;"/>
        <path d="M102.469,132.206C100.596,132.206 98.748,131.726 97.052,130.333L98.495,128.384C99.483,129.27 101.077,129.751 102.343,129.751C104.216,129.751 105.507,128.916 105.507,127.169C105.507,125.599 104.064,124.739 102.419,123.904C99.786,122.562 97.103,121.398 97.103,117.88C97.103,115.146 99.128,113.122 102.444,113.122C104.292,113.122 105.988,113.679 107.43,114.691L106.063,116.767C104.924,115.932 103.963,115.602 102.419,115.602C100.976,115.602 99.761,116.336 99.761,117.728C99.761,119.727 101.532,120.411 103.811,121.551C105.911,122.588 108.139,123.93 108.139,127.017C108.139,130.333 105.557,132.206 102.469,132.206" style="fill:rgb(96,101,101);fill-rule:nonzero;"/>
        <rect x="112.29" y="113.426" width="2.531" height="18.477" style="fill:rgb(96,101,101);"/>
        <path d="M125.299,115.805L125.299,131.903L122.768,131.903L122.768,115.805L118.996,115.805L118.996,113.426L129.222,113.426L129.222,115.805L125.299,115.805Z" style="fill:rgb(96,101,101);fill-rule:nonzero;"/>
        <path d="M139.372,111.958L136.942,111.958L139.296,108.237L141.726,108.237L139.372,111.958ZM133.399,131.902L133.399,113.426L143.726,113.426L143.726,115.805L135.93,115.805L135.93,121.702L143.548,121.702L143.548,124.081L135.93,124.081L135.93,129.523L144.207,129.523L144.207,131.902L133.399,131.902Z" style="fill:rgb(96,101,101);fill-rule:nonzero;"/>
        <path d="M163.593,115.704L161.467,115.704L161.467,129.624L163.112,129.624C168.579,129.624 170.883,126.081 170.883,122.639C170.883,118.867 168.022,115.704 163.593,115.704M163.416,131.902L158.936,131.902L158.936,113.426L163.644,113.426C169.946,113.426 173.515,117.576 173.515,122.613C173.515,127.751 169.743,131.902 163.416,131.902" style="fill:rgb(96,101,101);fill-rule:nonzero;"/>
        <path d="M184.955,132.206C180.703,132.206 177.742,129.473 177.742,124.917L177.742,113.426L180.298,113.426L180.298,124.917C180.298,128.485 182.525,129.827 184.955,129.827C187.36,129.827 189.688,128.46 189.688,124.917L189.688,113.426L192.194,113.426L192.194,124.917C192.194,129.32 189.081,132.206 184.955,132.206" style="fill:rgb(96,101,101);fill-rule:nonzero;"/>
        <g>
            <path d="M0,99.766L194.103,99.766" style="fill:rgb(96,101,101);"/>
            <rect x="0" y="99.056" width="194.103" height="1.42" style="fill:rgb(96,101,101);"/>
        </g>
        <path d="M1.975,164.016L1.975,145.539L4.506,145.539L4.506,161.637L11.517,161.637L11.517,164.016L1.975,164.016Z" style="fill:rgb(96,101,101);fill-rule:nonzero;"/>
        <path d="M23.513,164.32C19.261,164.32 16.3,161.587 16.3,157.031L16.3,145.54L18.856,145.54L18.856,157.031C18.856,160.599 21.083,161.941 23.513,161.941C25.918,161.941 28.246,160.574 28.246,157.031L28.246,145.54L30.752,145.54L30.752,157.031C30.752,161.434 27.639,164.32 23.513,164.32" style="fill:rgb(96,101,101);fill-rule:nonzero;"/>
        <path d="M48.444,164.016L44.318,157.713C44.015,157.258 43.534,156.423 43.534,156.423C43.534,156.423 43.053,157.233 42.699,157.764L38.598,164.016L35.662,164.016L42.066,154.272L36.397,145.539L39.509,145.539L43.053,151.006C43.332,151.437 43.635,151.968 43.635,151.968C43.635,151.968 43.914,151.437 44.243,150.955L47.812,145.539L50.722,145.539L45.078,154.145L51.507,164.016L48.444,164.016Z" style="fill:rgb(96,101,101);fill-rule:nonzero;"/>
        <path d="M56.493,164.016L56.493,145.539L66.82,145.539L66.82,147.918L59.024,147.918L59.024,153.816L66.642,153.816L66.642,156.195L59.024,156.195L59.024,161.637L67.3,161.637L67.3,164.016L56.493,164.016Z" style="fill:rgb(96,101,101);fill-rule:nonzero;"/>
        <path d="M89.294,164.016L89.294,150.424C89.294,150.095 89.345,149.715 89.345,149.715C89.345,149.715 89.193,150.019 89.092,150.146L83.296,157.967L82.283,157.967L76.437,150.348C76.335,150.222 76.183,149.944 76.183,149.944C76.183,149.944 76.234,150.297 76.234,150.626L76.234,164.016L73.703,164.016L73.703,145.539L75.855,145.539L82.815,154.575L89.573,145.539L91.825,145.539L91.825,164.016L89.294,164.016Z" style="fill:rgb(96,101,101);fill-rule:nonzero;"/>
        <path d="M104.354,156.144L101.368,156.144L101.368,161.637L104.101,161.637C106.379,161.637 107.442,160.523 107.442,158.802C107.442,157.208 106.227,156.144 104.354,156.144M103.291,147.918L101.368,147.918L101.368,153.765L103.064,153.765C105.822,153.765 106.455,152.095 106.455,150.551C106.455,148.906 105.367,147.918 103.291,147.918M104.379,164.016L98.836,164.016L98.836,145.54L103.722,145.54C106.86,145.54 109.087,147.463 109.087,150.348C109.087,152.474 108.151,153.841 106.961,154.601C108.404,155.031 110.074,156.727 110.074,159.004C110.074,161.308 108.455,164.016 104.379,164.016" style="fill:rgb(96,101,101);fill-rule:nonzero;"/>
        <path d="M123.717,147.716C119.718,147.716 116.959,150.677 116.959,154.727C116.959,158.827 120.174,161.839 123.818,161.839C127.437,161.839 130.627,159.106 130.627,154.676C130.627,150.677 127.792,147.716 123.717,147.716M123.818,164.32C118.528,164.32 114.326,160.295 114.326,154.727C114.326,149.336 118.351,145.236 123.692,145.236C129.412,145.236 133.259,149.411 133.259,154.777C133.259,160.144 129.032,164.32 123.818,164.32" style="fill:rgb(96,101,101);fill-rule:nonzero;"/>
        <path d="M145.458,164.32C141.206,164.32 138.245,161.587 138.245,157.031L138.245,145.54L140.801,145.54L140.801,157.031C140.801,160.599 143.028,161.941 145.458,161.941C147.863,161.941 150.191,160.574 150.191,157.031L150.191,145.54L152.697,145.54L152.697,157.031C152.697,161.434 149.584,164.32 145.458,164.32" style="fill:rgb(96,101,101);fill-rule:nonzero;"/>
        <path d="M163.96,147.918L160.973,147.918L160.973,154.272L163.909,154.272C166.188,154.272 167.503,152.854 167.503,150.88C167.503,149.614 166.365,147.918 163.96,147.918M168.44,164.016L160.973,155.385L160.973,164.016L158.442,164.016L158.442,145.539L164.416,145.539C167.858,145.539 170.136,147.994 170.136,150.981C170.136,153.942 167.63,156.271 164.871,156.271L171.68,164.016L168.44,164.016Z" style="fill:rgb(96,101,101);fill-rule:nonzero;"/>
        <path d="M184.056,164.32C179.373,164.32 174.691,160.498 174.691,154.778C174.691,149.057 178.994,145.236 184.081,145.236C187.068,145.236 189.118,146.198 190.89,147.742L189.346,149.615C187.751,148.299 186.182,147.716 184.031,147.716C180.31,147.716 177.324,150.526 177.324,154.803C177.324,158.55 180.386,161.84 184.132,161.84C186.789,161.84 188.915,160.346 189.574,158.119L184.005,158.119L184.005,155.74L192.51,155.74C192.51,160.752 188.511,164.32 184.056,164.32" style="fill:rgb(96,101,101);fill-rule:nonzero;"/>
        <path d="M92.56,21.401C89.844,21.401 87.484,19.857 86.307,17.483L85.498,17.483L85.498,79.072C85.498,82.968 88.661,86.131 92.56,86.131C96.459,86.131 99.621,82.968 99.621,79.072L99.621,17.483L98.821,17.483C97.644,19.857 95.282,21.401 92.56,21.401" style="fill:rgb(238,44,39);fill-rule:nonzero;"/>
        <path d="M85.494,7.185C85.494,3.276 88.661,0.113 92.574,0.113C96.482,0.113 99.652,3.276 99.652,7.185C99.652,11.093 96.482,14.265 92.574,14.265C88.661,14.265 85.494,11.093 85.494,7.185" style="fill:rgb(238,44,39);fill-rule:nonzero;"/>
        <path d="M8.969,86.135C5.07,86.135 1.907,82.976 1.907,79.074L1.907,24.537C1.907,20.638 5.07,17.481 8.969,17.481C12.868,17.481 16.031,20.638 16.031,24.537L16.031,86.135L8.969,86.135Z" style="fill:rgb(238,44,39);fill-rule:nonzero;"/>
        <path d="M19.85,86.135L19.846,86.135L19.846,24.537C19.846,20.638 23.009,17.481 26.901,17.481C30.8,17.481 33.962,20.638 33.962,24.537L33.962,86.135L33.973,86.135C30.632,86.135 29.864,82.257 29.864,78.478L29.869,78.478C29.869,82.376 26.705,86.135 22.806,86.135L19.855,86.135" style="fill:rgb(238,44,39);fill-rule:nonzero;"/>
        <path d="M68.739,17.476C72.632,17.476 75.795,20.638 75.795,24.541L75.795,79.076C75.795,82.974 72.632,86.135 68.739,86.135C64.84,86.135 61.675,82.974 61.675,79.076L61.675,17.476L68.739,17.476Z" style="fill:rgb(238,44,39);fill-rule:nonzero;"/>
        <path d="M57.853,17.476L57.864,17.476L57.864,79.076C57.864,82.974 54.703,86.135 50.808,86.135C46.905,86.135 43.742,82.974 43.742,79.076L43.742,17.476L43.737,17.476C47.072,17.481 47.849,21.355 47.849,25.136L47.839,25.136C47.839,21.237 51,17.476 54.897,17.476L57.853,17.476" style="fill:rgb(238,44,39);fill-rule:nonzero;"/>
        <path d="M143.399,3.918C140.677,3.918 138.291,2.375 137.112,0L136.314,0L136.314,79.073C136.314,82.968 139.468,86.131 143.395,86.131C147.292,86.131 150.452,82.968 150.452,79.073L150.452,0L149.658,0C148.481,2.375 146.119,3.918 143.399,3.918" style="fill:rgb(0,169,229);fill-rule:nonzero;"/>
        <path d="M167.268,86.135C163.373,86.135 160.209,82.972 160.209,79.074L160.209,24.537C160.209,20.638 163.373,17.476 167.268,17.476C171.167,17.476 174.33,20.638 174.33,24.537L174.33,86.135L167.268,86.135Z" style="fill:rgb(0,169,229);fill-rule:nonzero;"/>
        <path d="M178.154,86.135L178.144,86.135L178.144,24.537C178.144,20.638 181.302,17.476 185.201,17.476C189.101,17.476 192.263,20.638 192.263,24.537L192.263,86.135L192.273,86.135C188.934,86.131 188.157,82.255 188.157,78.474L188.167,78.474C188.167,82.374 185.003,86.135 181.108,86.135L178.154,86.135" style="fill:rgb(0,169,229);fill-rule:nonzero;"/>
        <path d="M110.939,79.061C110.939,75.151 114.106,71.98 118.018,71.98C121.923,71.98 125.094,75.151 125.094,79.061C125.094,82.968 121.923,86.135 118.018,86.135C114.106,86.135 110.939,82.968 110.939,79.061" style="fill:rgb(0,169,229);fill-rule:nonzero;"/>
    </g>
</svg>
